<?xml version="1.0" encoding="utf-8"?>
<!-- Generator: Adobe Illustrator 16.0.0, SVG Export Plug-In . SVG Version: 6.00 Build 0)  -->
<!DOCTYPE svg PUBLIC "-//W3C//DTD SVG 1.1//EN" "http://www.w3.org/Graphics/SVG/1.1/DTD/svg11.dtd">
<svg version="1.1" xmlns="http://www.w3.org/2000/svg" xmlns:xlink="http://www.w3.org/1999/xlink" x="0px" y="0px"
	 width="1601.803px" height="123px" viewBox="167.14 -903.572 1601.803 123" enable-background="new 167.14 -903.572 1601.803 123"
	 xml:space="preserve">
<g id="Layer_13">
</g>
<g id="Layer_1">
</g>
<g id="Layer_11">
</g>
<g id="Layer_5">
</g>
<g id="Layer_10">
</g>
<g id="Layer_4">
</g>
<g id="Layer_9">
</g>
<g id="Layer_8">
</g>
<g id="Layer_12">
</g>
<g id="Layer_7">
	<g display="none">
		<rect x="167.213" y="-903.572" display="inline" fill="#294093" width="200.216" height="123"/>
		<rect x="367.43" y="-903.572" display="inline" fill="#294093" width="200.216" height="123"/>
		<rect x="567.646" y="-903.572" display="inline" fill="#294093" width="200.217" height="123"/>
		<rect x="767.862" y="-903.572" display="inline" fill="#294093" width="200.216" height="123"/>
		<rect x="968.078" y="-903.572" display="inline" fill="#294093" width="200.217" height="123"/>
		<rect x="1168.295" y="-903.572" display="inline" fill="#294093" width="200.216" height="123"/>
		<rect x="1368.511" y="-903.572" display="inline" fill="#294093" width="200.217" height="123"/>
		<rect x="1568.728" y="-903.572" display="inline" fill="#294093" width="200.216" height="123"/>
	</g>
	<g>
		<path fill="#009943" d="M179.798-876.272c12.345,7.083,44.724,8.5,50.592,22.058c7.082,16.593,1.821,22.867,19.629,31.972
			c8.095,4.25,9.511,6.073,18.82,6.881c5.869,0.607,20.641-3.844,25.295,1.821c10.927,12.952,11.939,22.058,32.379,17.405
			c-14.976-5.06-14.773-15.379-22.463-28.332c-11.13-18.618-25.295-22.868-44.521-19.427c-12.748,2.225-11.939-8.297-17.605-16.797
			C233.224-873.237,193.559-874.451,179.798-876.272z"/>
		<path fill="#009943" d="M221.688-795.529c3.239-12.142,9.713-16.189,20.439-22.867c6.476-4.047,12.952,2.022,20.034,4.046
			C246.579-808.885,232.818-807.874,221.688-795.529z"/>
		<path fill="#009943" d="M354.845-885.379c-1.013-19.224-27.118-16.392-36.831,6.273c-7.286,17.403-35.211,32.379-41.08,31.771
			c11.332,1.215,19.832,7.084,26.105,16.797c11.737-12.142,18.414-20.844,22.866-37.033c3.037-11.332,15.785-14.165,18.618-14.165
			C350.19-881.534,354.845-883.153,354.845-885.379"/>
		<path fill="#009943" d="M323.276-852.191c0.201-2.225,2.023-4.451,2.629-6.476c1.619,1.417,2.834,4.047,3.845,6.072
			C327.729-852.595,325.3-851.989,323.276-852.191z"/>
		<path fill="#009943" d="M184.048-877.689c2.631,0.81,5.869,0.607,8.5,0.81c-1.821-3.642-3.642-7.285-5.463-10.928
			C186.071-884.366,184.655-881.129,184.048-877.689z"/>
		<path fill="#009943" d="M198.619-877.487c2.631,1.013,6.071,1.215,8.903,1.821c-2.427-3.643-4.856-7.285-7.083-10.927
			C199.832-883.76,198.619-880.521,198.619-877.487z"/>
		<path fill="#C92918" d="M237.473-898.937c14.772,2.023,40.069-3.239,46.138,7.689c1.013,1.619,13.761,24.689,15.988,27.724
			c-16.191-0.809-25.904,7.892-39.462-1.619c8.297-1.011-7.487-12.75-11.737-17.606
			C258.316-882.545,243.342-891.855,237.473-898.937z"/>
		<path fill="#009943" d="M318.216-843.895c0.203-2.225,3.036-4.653,3.642-6.677c1.619,1.417,5.06,4.654,5.87,6.475
			C325.906-843.895,320.442-843.692,318.216-843.895z"/>
	</g>
	<g>
		<path fill="#009943" d="M375.584-876.206c12.345,7.083,44.723,8.5,50.592,22.058c7.082,16.594,1.821,22.868,19.629,31.974
			c8.095,4.25,10.906,7.156,20.214,7.965c5.869,0.607,15.96-1.26,20.25,4.686c9.258,12.829,7.833,27.444,27.732,21.343
			c-14.976-5.06-5.295-20.566-14.995-32.893c-11.13-18.618-24.466-26.193-43.691-22.753c-12.748,2.226-11.939-8.296-17.605-16.796
			C429.008-873.17,389.345-874.385,375.584-876.206z"/>
		<path fill="#009943" d="M430.743-793.578c3.239-12.141,8.913-18.952,16.428-23.492c7.581-0.377,13.636,4.767,20.184,4.577
			C460.807-810.014,441.625-806.062,430.743-793.578z"/>
		<path fill="#009943" d="M551.488-884.166c-1.011-19.226-27.689-17.825-37.402,4.841c-7.286,17.403-39.338,33.877-45.207,33.271
			c11.332,1.214,21.834,7.583,28.108,17.296c11.738-12.142,21.252-24.557,25.704-40.746c3.035-11.332,15.644-11.019,18.476-11.019
			C546.835-880.32,551.488-881.94,551.488-884.166"/>
		<path fill="#009943" d="M519.061-852.125c0.202-2.226,2.023-4.451,2.631-6.476c1.619,1.416,2.834,4.047,3.845,6.072
			C523.513-852.528,521.084-851.922,519.061-852.125z"/>
		<path fill="#009943" d="M379.834-877.622c2.631,0.81,5.869,0.607,8.499,0.81c-1.821-3.643-3.643-7.286-5.464-10.929
			C381.857-884.301,380.441-881.063,379.834-877.622z"/>
		<path fill="#009943" d="M394.403-877.42c2.631,1.013,6.071,1.214,8.905,1.821c-2.429-3.642-4.856-7.285-7.082-10.927
			C395.618-883.693,394.403-880.456,394.403-877.42z"/>
		<path fill="#C92918" d="M433.258-898.87c14.773,2.022,40.069-3.239,46.14,7.69c1.012,1.619,13.761,24.688,15.987,27.724
			c-16.189-0.81-25.903,7.892-39.461-1.619c8.297-1.011-7.487-12.75-11.737-17.605C454.102-882.479,439.126-891.788,433.258-898.87z
			"/>
		<path fill="#009943" d="M514.002-843.827c0.202-2.227,3.035-4.654,3.642-6.679c1.619,1.417,5.059,4.655,5.869,6.476
			C521.692-843.827,516.229-843.625,514.002-843.827z"/>
	</g>
	<g>
		<path fill="#009943" d="M1580.883-877.453c12.344,7.082,44.723,8.5,50.592,22.058c7.082,16.593,1.821,22.867,19.629,31.974
			c8.095,4.249,10.906,7.155,20.214,7.963c5.869,0.608,15.961-1.26,20.251,4.686c9.258,12.83,7.833,27.445,27.732,21.343
			c-14.976-5.059-5.295-20.566-14.995-32.893c-11.13-18.618-24.466-26.193-43.691-22.752c-12.748,2.225-11.939-8.297-17.605-16.797
			C1634.308-874.418,1594.644-875.632,1580.883-877.453z"/>
		<path fill="#009943" d="M1636.042-794.825c3.239-12.142,8.913-18.953,16.428-23.493c7.581-0.377,13.636,4.768,20.184,4.577
			C1666.106-811.263,1646.924-807.311,1636.042-794.825z"/>
		<path fill="#009943" d="M1756.788-885.414c-1.011-19.224-27.689-19.825-37.402,2.841c-7.286,17.404-39.338,35.878-45.207,35.271
			c11.332,1.215,21.834,7.583,28.108,17.297c11.738-12.142,20.252-22.558,24.704-38.747c3.035-11.332,16.644-13.018,19.476-13.018
			C1752.134-881.569,1756.788-883.188,1756.788-885.414"/>
		<path fill="#009943" d="M1724.36-853.372c0.202-2.227,2.023-4.453,2.631-6.478c1.619,1.417,2.834,4.047,3.845,6.072
			C1728.812-853.777,1726.384-853.17,1724.36-853.372z"/>
		<path fill="#009943" d="M1585.133-878.871c2.632,0.81,5.869,0.607,8.499,0.81c-1.821-3.642-3.642-7.285-5.463-10.928
			C1587.157-885.548,1585.741-882.311,1585.133-878.871z"/>
		<path fill="#009943" d="M1599.702-878.668c2.632,1.013,6.071,1.215,8.905,1.821c-2.429-3.642-4.856-7.285-7.082-10.927
			C1600.917-884.942,1599.702-881.703,1599.702-878.668z"/>
		<path fill="#C92918" d="M1638.557-900.119c14.773,2.023,40.069-3.237,46.139,7.689c1.013,1.619,13.761,24.689,15.987,27.724
			c-16.189-0.809-25.903,7.892-39.461-1.619c8.297-1.011-7.487-12.75-11.737-17.605
			C1659.401-883.727,1644.426-893.037,1638.557-900.119z"/>
		<path fill="#009943" d="M1719.302-845.076c0.202-2.225,3.035-4.653,3.642-6.677c1.619,1.416,5.059,4.653,5.869,6.475
			C1726.991-845.076,1721.528-844.874,1719.302-845.076z"/>
	</g>
	<g>
		<path fill="#009943" d="M579.516-879.16c12.345,7.084,44.723,8.5,50.592,22.058c7.082,16.594,1.821,22.868,19.629,31.974
			c8.095,4.25,16.547,3.628,29.704,15.198c11.88,10.447,2.983,34.482,22.882,28.38c-14.976-5.06,3.122-32.866-6.579-45.192
			c-11.129-18.618-17.271-23.479-36.496-20.039c-12.748,2.226-11.939-8.297-17.605-16.797
			C632.939-876.125,593.276-877.339,579.516-879.16z"/>
		<path fill="#009943" d="M648.724-789.705c0.056-0.209-11.284-19.693,6.338-30.338c7.582-0.377,17.152,9.165,21.136,11.028
			C659.724-810.151,652.98-798.417,648.724-789.705z"/>
		<path fill="#009943" d="M754.992-887.118c-1.012-19.225-27.117-19.252-36.831,3.413c-7.286,17.403-39.48,35.303-45.349,34.697
			c11.332,1.213,15.59,5.866,24.552,20.929c11.737-12.142,24.092-27.62,28.545-43.81c3.035-11.332,15.928-11.586,18.762-11.586
			C750.338-883.273,754.992-884.892,754.992-887.118"/>
		<path fill="#009943" d="M722.994-855.079c0.201-2.226,2.024-4.452,2.63-6.476c1.619,1.416,2.833,4.047,3.845,6.071
			C727.444-855.483,725.018-854.876,722.994-855.079z"/>
		<path fill="#009943" d="M583.766-880.576c2.631,0.809,5.868,0.607,8.5,0.809c-1.821-3.642-3.642-7.285-5.465-10.927
			C585.789-887.254,584.373-884.017,583.766-880.576z"/>
		<path fill="#009943" d="M598.336-880.374c2.63,1.011,6.071,1.213,8.903,1.821c-2.427-3.643-4.855-7.286-7.082-10.927
			C599.55-886.647,598.336-883.41,598.336-880.374z"/>
		<path fill="#C92918" d="M637.191-901.825c14.772,2.023,40.068-3.237,46.138,7.691c1.012,1.619,13.761,24.688,15.986,27.724
			c-16.189-0.81-25.902,7.892-39.461-1.619c8.298-1.012-7.487-12.75-11.736-17.606C658.034-885.434,643.06-894.742,637.191-901.825z
			"/>
		<path fill="#009943" d="M717.934-846.781c0.203-2.226,3.035-4.655,3.643-6.679c1.619,1.418,5.059,4.655,5.868,6.476
			C725.624-846.781,720.16-846.579,717.934-846.781z"/>
	</g>
	<g>
		<path fill="#009943" d="M1380.381-879.16c12.345,7.084,44.723,8.5,50.592,22.058c7.082,16.594,1.821,22.868,19.629,31.974
			c8.095,4.25,16.547,3.628,29.703,15.198c11.881,10.447,2.983,34.482,22.882,28.38c-14.975-5.06,3.123-32.866-6.578-45.192
			c-11.129-18.618-17.271-23.479-36.496-20.039c-12.748,2.226-11.939-8.297-17.605-16.797
			C1433.805-876.125,1394.142-877.339,1380.381-879.16z"/>
		<path fill="#009943" d="M1449.589-789.705c0.056-0.209-11.284-19.693,6.338-30.338c7.581-0.377,17.152,9.165,21.136,11.028
			C1460.589-810.151,1453.846-798.417,1449.589-789.705z"/>
		<path fill="#009943" d="M1556.857-887.118c-1.012-19.225-27.117-19.252-36.831,3.413c-7.286,17.403-40.48,35.303-46.35,34.697
			c11.332,1.213,15.59,5.866,24.553,20.929c11.737-12.142,26.093-29.62,30.545-45.81c3.035-11.332,14.928-9.586,17.762-9.586
			C1552.203-883.273,1556.857-884.892,1556.857-887.118"/>
		<path fill="#009943" d="M1523.857-855.079c0.203-2.226,2.023-4.452,2.631-6.476c1.619,1.416,2.834,4.047,3.845,6.071
			C1528.31-855.483,1525.881-854.876,1523.857-855.079z"/>
		<path fill="#009943" d="M1384.631-880.576c2.631,0.809,5.868,0.607,8.5,0.809c-1.823-3.642-3.642-7.285-5.465-10.927
			C1386.654-887.254,1385.238-884.017,1384.631-880.576z"/>
		<path fill="#009943" d="M1399.2-880.374c2.631,1.011,6.072,1.213,8.904,1.821c-2.429-3.643-4.856-7.286-7.082-10.927
			C1400.415-886.647,1399.2-883.41,1399.2-880.374z"/>
		<path fill="#C92918" d="M1438.055-901.825c14.773,2.023,40.068-3.237,46.14,7.691c1.012,1.619,13.761,24.688,15.986,27.724
			c-16.189-0.81-25.902,7.892-39.461-1.619c8.298-1.012-7.487-12.75-11.737-17.606
			C1458.899-885.434,1443.923-894.742,1438.055-901.825z"/>
		<path fill="#009943" d="M1518.799-846.781c0.203-2.226,3.035-4.655,3.643-6.679c1.619,1.418,5.059,4.655,5.868,6.476
			C1526.488-846.781,1521.025-846.579,1518.799-846.781z"/>
	</g>
	<g>
		<path fill="#009943" d="M1180.451-880.048c12.344,7.083,44.723,8.5,50.592,22.058c7.083,16.594,4.216,22.323,16.855,34.457
			c0.426,0.408,0.848,0.788,1.123,1.239c6.991,11.476-20.917,18.442-4.551,35.746c3.54-25.622,33.192-13.979,41.487-35.841
			c-1.447-17.741-6.55-28.721-25.774-25.28c-12.75,2.226-11.939-8.297-17.605-16.797
			C1233.875-877.013,1194.211-878.227,1180.451-880.048z"/>
		<path fill="#009943" d="M1318.869-792.025c-19.55,5.463-21.289-21.178-34.218-23.34c5.261-4.896,12.069-9.325,14.909-12.685
			C1305.854-826.906,1302.332-800.18,1318.869-792.025z"/>
		<path fill="#009943" d="M1356.355-889.153c-1.011-19.224-27.689-17.536-37.402,5.13c-7.286,17.403-40.863,34.834-46.731,34.228
			c11.332,1.213,15.262,21.355,15.452,28.862c14.737-9.066,34.557-30.29,38.886-52.414c3.035-11.332,16.644-12.162,19.476-12.162
			C1351.7-885.308,1356.355-886.926,1356.355-889.153"/>
		<path fill="#009943" d="M1323.928-855.967c0.202-2.226,2.023-4.452,2.631-6.476c1.619,1.417,2.832,4.047,3.845,6.071
			C1328.38-856.372,1325.951-855.764,1323.928-855.967z"/>
		<path fill="#009943" d="M1184.701-881.466c2.631,0.81,5.869,0.607,8.499,0.81c-1.821-3.642-3.643-7.285-5.464-10.928
			C1186.725-888.143,1185.308-884.906,1184.701-881.466z"/>
		<path fill="#009943" d="M1199.27-881.263c2.632,1.013,6.071,1.215,8.905,1.821c-2.429-3.643-4.856-7.285-7.082-10.927
			C1200.485-887.537,1199.27-884.298,1199.27-881.263z"/>
		<path fill="#C92918" d="M1238.125-902.713c14.773,2.023,40.068-3.237,46.139,7.689c1.011,1.619,13.76,24.689,15.987,27.724
			c-16.189-0.809-25.903,7.892-39.461-1.619c8.297-1.011-7.487-12.75-11.737-17.606
			C1258.969-886.322,1243.993-895.631,1238.125-902.713z"/>
		<path fill="#009943" d="M1318.869-847.669c0.202-2.226,3.035-4.655,3.642-6.679c1.619,1.417,5.059,4.654,5.869,6.475
			C1326.559-847.669,1321.095-847.468,1318.869-847.669z"/>
	</g>
	<g>
		<path fill="#009943" d="M780.018-880.907c12.344,7.083,44.723,8.5,50.592,22.058c7.083,16.594,4.216,22.325,16.855,34.458
			c0.426,0.408,0.848,0.787,1.123,1.239c6.991,11.475-20.917,18.441-4.551,35.746c3.54-25.624,33.192-13.979,41.487-35.841
			c-1.447-17.743-6.55-28.721-25.774-25.281c-12.75,2.226-11.939-8.297-17.605-16.795
			C833.442-877.871,793.779-879.086,780.018-880.907z"/>
		<path fill="#009943" d="M918.437-792.882c-19.55,5.462-21.289-21.178-34.218-23.34c5.261-4.896,12.069-9.325,14.909-12.686
			C905.421-827.764,901.899-801.037,918.437-792.882z"/>
		<path fill="#009943" d="M955.922-890.324c-1.011-19.224-27.689-17.536-37.402,5.13c-7.286,17.404-40.863,35.148-46.732,34.542
			c11.332,1.213,15.262,21.354,15.452,28.862c14.737-9.067,34.557-28.291,38.886-50.415c3.035-11.332,16.644-14.475,19.476-14.475
			C951.268-886.479,955.922-888.098,955.922-890.324"/>
		<path fill="#009943" d="M923.495-856.826c0.202-2.226,2.023-4.452,2.631-6.476c1.619,1.418,2.832,4.047,3.845,6.071
			C927.947-857.23,925.519-856.623,923.495-856.826z"/>
		<path fill="#009943" d="M784.268-882.323c2.631,0.809,5.869,0.607,8.499,0.809c-1.821-3.642-3.643-7.285-5.464-10.927
			C786.292-889.002,784.875-885.763,784.268-882.323z"/>
		<path fill="#009943" d="M798.837-882.121c2.631,1.011,6.071,1.213,8.905,1.821c-2.429-3.642-4.856-7.284-7.082-10.927
			C800.052-888.394,798.837-885.157,798.837-882.121z"/>
		<path fill="#C92918" d="M837.692-903.572c14.773,2.025,40.068-3.237,46.139,7.691c1.011,1.619,13.76,24.688,15.987,27.724
			c-16.189-0.81-25.903,7.893-39.461-1.619c8.297-1.012-7.487-12.75-11.737-17.607C858.536-887.179,843.561-896.489,837.692-903.572
			z"/>
		<path fill="#009943" d="M918.437-848.528c0.202-2.226,3.035-4.655,3.642-6.679c1.619,1.417,5.059,4.655,5.869,6.476
			C926.126-848.528,920.663-848.326,918.437-848.528z"/>
	</g>
	<g>
		<path fill="#009943" d="M978.947-877.593c12.344,7.082,44.723,8.5,50.592,22.058c7.083,38.754,15.682,18.987,13.979,28.675
			c-2.75,15.628-26.578,14.177-26.578,33.28c11.695-17.121,57.069-6.726,65.364-28.588c0-10.243-4.399-26.485-23.625-23.045
			c-12.748,2.226-11.938-8.297-17.605-16.797C1032.372-874.558,992.708-875.772,978.947-877.593z"/>
		<path fill="#009943" d="M1124.668-797.81c-11.06,4.229-21.183-0.771-27.427-12.037c-4.419-7.972-14.239-4.609-14.938-7.356
			c8.438-2.574,15.812-8.723,18.651-12.085C1115.809-807.755,1106.424-807.755,1124.668-797.81z"/>
		<path fill="#009943" d="M1157.427-883.84c-1.013-19.224-28.834-21.54-38.548,1.125c-7.286,17.403-42.293,35.982-48.162,35.375
			c11.332,1.214,14.708,18.753,14.897,26.262c14.737-9.067,36.542-28.835,40.87-50.959c3.036-11.333,17.787-8.159,20.621-8.159
			C1152.771-879.995,1157.427-881.614,1157.427-883.84"/>
		<path fill="#009943" d="M1122.425-853.511c0.203-2.227,2.023-4.453,2.63-6.476c1.619,1.416,2.834,4.047,3.845,6.071
			C1126.877-853.917,1124.448-853.309,1122.425-853.511z"/>
		<path fill="#009943" d="M983.196-879.011c2.632,0.81,5.869,0.608,8.5,0.81c-1.821-3.642-3.643-7.285-5.463-10.927
			C985.22-885.688,983.804-882.45,983.196-879.011z"/>
		<path fill="#009943" d="M997.768-878.807c2.631,1.011,6.071,1.214,8.903,1.821c-2.428-3.643-4.856-7.286-7.083-10.929
			C998.981-885.08,997.768-881.843,997.768-878.807z"/>
		<path fill="#C92918" d="M1036.622-900.258c14.771,2.023,40.068-3.237,46.14,7.689c1.011,1.619,13.759,24.689,15.986,27.724
			c-16.19-0.809-25.902,7.892-39.462-1.619c8.297-1.011-7.487-12.748-11.737-17.605
			C1057.465-883.867,1042.49-893.176,1036.622-900.258z"/>
		<path fill="#009943" d="M1117.365-845.214c0.202-2.226,3.035-4.655,3.642-6.678c1.619,1.416,5.06,4.653,5.87,6.476
			C1125.055-845.214,1119.591-845.012,1117.365-845.214z"/>
	</g>
</g>
<g id="guides" display="none">
</g>
</svg>
