<?xml version="1.0" encoding="utf-8"?>
<!-- Generator: Adobe Illustrator 16.0.0, SVG Export Plug-In . SVG Version: 6.00 Build 0)  -->
<!DOCTYPE svg PUBLIC "-//W3C//DTD SVG 1.1//EN" "http://www.w3.org/Graphics/SVG/1.1/DTD/svg11.dtd">
<svg version="1.1" id="Layer_1" xmlns="http://www.w3.org/2000/svg" xmlns:xlink="http://www.w3.org/1999/xlink" x="0px" y="0px"
	 width="510.85px" height="276.25px" viewBox="0 207.3 510.85 276.25" enable-background="new 0 207.3 510.85 276.25"
	 xml:space="preserve">
<g id="XMLID_1_">
	<g id="XMLID_3_">
		<path id="XMLID_21_" fill="#FFB878" d="M499.8,355.2c-0.85-0.85-1.7-2.55-2.55-3.4c-1.7-2.55-2.55-4.25-4.25-6.8
			c-1.7-1.7-2.55-3.4-4.25-5.1c-11.05-11.9-25.5-21.25-41.65-25.5c-1.699,0-2.55-0.85-4.25-0.85c-5.1-0.85-10.199-3.4-16.149-3.4
			c-0.851,0-0.851,0-1.7,0c-6.8,0-14.45,0.85-21.25,0.85l0,0l0,0l0,0c0,0,0,0,0,0.85c-6.8,7.65-12.75,5.1-17.85,7.65
			c0,0,0,0-0.851,0c-27.2,14.45-46.75,44.2-46.75,77.35c0,39.101,26.351,72.25,62.05,83.301c0.851,0,0.851,0,1.7,0
			c7.65,1.699,15.3,3.399,22.95,3.399c8.5,0,16.15-0.85,23.8-3.399l0,0c8.5-2.551,16.15-5.95,22.95-11.051
			c4.25-2.55,10.2-5.949,13.6-9.35c1.7-1.7,3.4-3.4,4.25-5.1c1.7-2.551,4.25-5.101,5.95-7.65c2.55-2.55,4.25-5.95,7.65-8.5l0,0
			c0-1.7,0-3.4,0.85-4.25c0.851-1.7,0.851-3.4,1.7-5.1c0-0.851,0.85-2.551,0.85-3.4c3.4-8.5,4.25-17.85,4.25-28.05
			C510.85,381.55,506.6,367.1,499.8,355.2z M424.15,462.3c-36.551,0-66.301-29.75-66.301-66.3c0-24.65,13.601-45.9,33.15-56.95
			c5.95-3.4,11.9-5.95,18.7-6.8c4.25-0.85,8.5-1.7,13.6-1.7c36.55,0,66.3,29.75,66.3,66.3C489.6,432.55,459.85,462.3,424.15,462.3z"
			/>
	</g>
	<g id="XMLID_7_">
		<path id="XMLID_8_" fill="#FFB878" d="M171.7,385.8c0,0,0-0.85,0-1.7c-2.55-19.55-11.9-36.55-24.65-49.3l0,0
			c-5.1-4.25-10.2-8.5-16.15-11.9l0,0l0,0c-12.75-7.65-28.05-11.9-44.2-11.9C39.1,310.15,0,349.25,0,396.85
			c0,47.601,39.1,86.7,85.85,86.7c45.05,0,81.6-34,85.85-78.2c0-0.85,0-1.699,0-1.699c0-1.7,0-4.25,0-5.95
			C172.55,392.6,172.55,389.2,171.7,385.8z M151.3,404.5c-4.25,32.3-32.3,57.8-65.45,57.8c-36.55,0-66.3-29.75-66.3-66.3
			s29.75-66.3,66.3-66.3c11.9,0,23.8,3.4,33.15,9.35c0,0,0.85,0,0.85,0.85c5.95,3.4,11.05,7.65,15.3,12.75l0,0
			c7.65,8.5,12.75,19.55,15.3,31.45c0,0.85,0,0.85,0,1.7c0.85,3.4,0.85,6.8,0.85,11.05c0,2.551,0,4.25,0,5.95
			C152.15,403.65,152.15,403.65,151.3,404.5z"/>
	</g>
	<path id="XMLID_59_" fill="#FFB878" d="M430.1,386.65l-19.55-54.4l-6.8-18.7l0,0L402.9,311l-36.551-99.45
		c-0.85-3.4-4.25-4.25-7.649-4.25h-50.15c-4.25,0-9.35,1.7-9.35,5.95v4.25c0,4.25,5.1,6.8,9.35,6.8h35.7c3.4,0,6.8,2.55,7.65,5.95
		l1.699,6.8c1.7,5.1-1.699,12.75-7.649,12.75H195.5c-3.4,0-6.8-5.95-6.8-8.5l0,0c0-5.1,0.85-8.5,6.8-8.5h7.65
		c4.25,0,11.05-6.8,11.05-11.05v-4.25c0-4.25-6.8-10.2-11.05-10.2H146.2c-4.25,0-8.5,5.95-8.5,10.2v4.25c0,4.25,3.4,11.05,8.5,11.05
		h10.2c3.4,0,6.8,0.85,7.65,4.25l5.95,15.3c0.85,2.55,0.85,4.25-0.85,6.8l-39.1,63.75h0.85l0,0l-10.2,17l0,0v0.85l-32.3,51
		c-3.4,5.1,0,11.05,5.95,11.05H236.3c1.7,0,3.4,0,5.1-0.85l15.3-11.9l1.7-0.85l108.8-85c4.25-3.4,11.05-1.7,12.75,3.4l4.25,10.2
		l0.85,1.7l0,0l6.8,19.55l19.551,54.4c1.699,4.25,5.949,6.8,10.199,5.1l4.25-1.7C429.25,396,431.8,390.9,430.1,386.65z M209.1,385.8
		h-78.2c-6.8,0-10.2-7.65-6.8-12.75L136,353.5l0,0l11.05-17.85l0,0l25.5-41.65c3.4-5.95,11.9-5.1,14.45,1.7l29.75,79.9
		C218.45,379.85,215.05,385.8,209.1,385.8z M364.65,281.25l-106.25,83.3l-1.7,0.85l-8.5,5.95c-4.25,3.4-11.05,1.7-12.75-3.4
		l-34-90.1c-1.7-5.1,2.55-11.05,7.65-11.05h150.45c3.4,0,6.8,1.7,7.65,5.1c0,0.85,0.85,1.7,0.85,2.55
		C367.2,277,366.35,279.55,364.65,281.25z"/>
</g>
<path id="XMLID_49_" opacity="0.25" fill="#E67E22" enable-background="new    " d="M499.8,355.2c-0.85-0.85-1.7-2.55-2.55-3.4
	c-1.7-2.55-2.55-4.25-4.25-6.8c-1.7-1.7-2.55-3.4-4.25-5.1c-11.05-12.75-25.5-22.1-41.65-26.35c-1.699,0-2.55-0.85-4.25-1.7
	c-5.1-0.85-10.199-2.55-16.149-2.55c-0.851,0-0.851,0-1.7,0c-6.8,0-14.45,0.85-21.25,0.85l0,0v1.7V311l-37.4-99.45
	c-0.85-3.4-4.25-4.25-7.649-4.25h-50.15c-4.25,0-9.35,1.7-9.35,5.95v4.25c0,4.25,5.1,6.8,9.35,6.8h35.7c3.4,0,6.8,2.55,7.65,5.95
	l1.699,6.8c1.7,5.1-1.699,12.75-7.649,12.75H256.7v17h102.85c3.4,0,6.8,1.7,7.65,5.1c0,0.85,0.85,1.7,0.85,2.55
	c0,2.55-0.85,5.1-3.399,5.95L258.4,363.7l-1.7,0.85v25.5l1.7-0.85l108.8-85c4.25-3.4,11.05-1.7,12.75,3.4l4.25,10.2
	c-27.2,14.45-46.75,44.2-46.75,77.35c0,39.1,26.35,72.25,62.05,83.3c0.85,0,0.85,0,1.7,0h47.6c8.5-2.55,16.15-5.95,22.95-11.05
	c4.25-2.551,10.2-5.95,13.6-9.351c1.7-1.7,3.4-3.399,4.25-5.1c1.7-2.55,4.25-5.101,5.95-7.65c2.55-2.55,4.25-5.95,7.65-8.5l0,0
	c0-1.7,0-3.399,0.85-4.25c0.851-1.7,0.851-3.399,1.7-5.1c0-0.851,0.85-2.55,0.85-3.4c3.4-8.5,4.25-17.85,4.25-28.05
	C510.85,381.55,506.6,367.1,499.8,355.2z M424.15,462.3c-36.551,0-66.301-29.75-66.301-66.3c0-24.65,13.601-45.9,33.15-56.95
	l19.55,54.4c1.7,4.25,5.95,6.8,10.2,5.1l4.25-1.7c4.25-1.7,6.8-5.95,5.1-10.2l-19.55-54.4c4.25-0.85,8.5-1.7,13.601-1.7
	c36.55,0,66.3,29.75,66.3,66.3C489.6,432.55,459.85,462.3,424.15,462.3z"/>
</svg>
