<?xml version="1.0" encoding="utf-8"?>
<!-- Generator: Adobe Illustrator 16.0.0, SVG Export Plug-In . SVG Version: 6.00 Build 0)  -->
<!DOCTYPE svg PUBLIC "-//W3C//DTD SVG 1.1//EN" "http://www.w3.org/Graphics/SVG/1.1/DTD/svg11.dtd">
<svg version="1.1" id="Layer_1" xmlns="http://www.w3.org/2000/svg" xmlns:xlink="http://www.w3.org/1999/xlink" x="0px" y="0px"
	 width="406.059px" height="633.177px" viewBox="21.177 0 406.059 633.177" enable-background="new 21.177 0 406.059 633.177"
	 xml:space="preserve">
<g id="XMLID_6_">
	<path id="XMLID_24_" fill="#FFE26C" d="M427.235,482.823c0,1.059,0,2.118-1.059,3.177c-1.06,3.177-3.177,6.353-5.294,7.412
		c-1.06,0-1.06,1.059-2.118,2.117c0,0,0,0-1.059,0H30.176c-2.118,0-4.235-2.117-5.294-3.177l-2.118-3.176v-1.06l0,0
		c-2.118-3.176-2.118-6.353,0-9.529l84.706-147.176c3.176-6.353-1.059-14.823-8.471-14.823H85.235
		c-7.412,0-11.647-7.412-8.471-13.765l68.824-117.53c2.118-4.235-1.059-7.412-5.294-7.412h-10.588
		c-4.235,0-7.412-6.353-5.294-10.588l93.177-162c1.059-2.118,3.176-3.176,5.294-4.235C225,0,226.059,0,228.176,0
		s5.294,2.118,6.353,4.235l90,155.647c1.059,1.059,1.059,3.176,1.059,4.235c0,5.294-4.235,9.529-9.529,9.529
		c-7.411,0-11.646,8.471-8.471,13.765L315,200.118l0,0l58.235,99.529c3.177,6.353-1.059,13.765-8.471,13.765h-14.823
		c-7.412,0-11.647,8.471-8.471,14.824L423,471.177l3.177,4.235C427.235,479.647,427.235,480.706,427.235,482.823z"/>
	<path id="XMLID_26_" fill="#FFE26C" d="M244.059,517.765v103.765c0,6.354-5.294,11.647-11.647,11.647h-8.47
		c-6.353,0-11.647-5.294-11.647-11.647V517.765c0-6.353,5.294-11.647,11.647-11.647h8.47
		C238.765,506.117,244.059,511.412,244.059,517.765z"/>
</g>
<g id="XMLID_2_" opacity="0.5">
	<path id="XMLID_29_" opacity="0.25" fill="#F1C40F" enable-background="new    " d="M244.059,517.765v103.765
		c0,6.354-5.294,11.647-11.647,11.647h-9.529v-127.06h9.529C238.765,506.117,244.059,511.412,244.059,517.765z"/>
	<path id="XMLID_10_" opacity="0.25" fill="#F1C40F" enable-background="new    " d="M425.117,486
		c-1.059,3.177-2.117,6.353-5.294,7.412c-1.059,0-1.059,1.059-1.059,2.117c0,0,0,0-1.059,0H222.882V1.059C225,0,226.059,0,228.176,0
		s5.294,2.118,6.353,4.235l90,155.647c1.059,1.059,1.059,3.176,1.059,4.235c0,5.294-4.235,9.529-9.529,9.529
		c-7.411,0-11.646,8.471-8.471,13.765L315,200.118l0,0l58.235,99.529c3.177,6.353-1.059,13.765-8.471,13.765h-14.823
		c-7.412,0-11.647,8.471-8.471,14.824L423,471.177v9.529C424.059,483.883,425.117,484.941,425.117,486z"/>
</g>
</svg>
