<?xml version="1.0" encoding="utf-8"?>
<!-- Generator: Adobe Illustrator 16.0.0, SVG Export Plug-In . SVG Version: 6.00 Build 0)  -->
<!DOCTYPE svg PUBLIC "-//W3C//DTD SVG 1.1//EN" "http://www.w3.org/Graphics/SVG/1.1/DTD/svg11.dtd">
<svg version="1.1" id="Layer_1" xmlns="http://www.w3.org/2000/svg" xmlns:xlink="http://www.w3.org/1999/xlink" x="0px" y="0px"
	 width="33.342px" height="38.572px" viewBox="289.425 376.553 33.342 38.572"
	 enable-background="new 289.425 376.553 33.342 38.572" xml:space="preserve">
<g id="XMLID_4_">
	<path id="XMLID_28_" fill="#FF9994" d="M319.005,399.825h-0.255v-5.1h0.255c0.319,0,0.574-0.319,0.574-0.638
		s-0.255-0.637-0.574-0.637h-3.314h-22.823h-0.574c-1.785,0-2.869,1.657-2.869,3.442v0.637c0,1.785,1.084,3.57,2.869,3.57h0.574
		h22.823h3.314c0.319,0,0.574-0.318,0.574-0.637C319.579,400.144,319.324,399.825,319.005,399.825z M291.337,399.825v-5.1h25.5v5.1
		H291.337z"/>
	<path id="XMLID_25_" fill="#FF9994" d="M289.871,414.487c0,0.319,0.255,0.638,0.574,0.638h3.315h22.822h0.574
		c1.785,0,2.869-1.912,2.869-3.697v-0.638c0-1.785-1.084-3.315-2.869-3.315h-0.574H293.76h-3.315c-0.318,0-0.574,0.319-0.574,0.638
		c0,0.319,0.255,0.638,0.574,0.638h0.255v5.1h-0.255C290.126,413.85,289.871,414.169,289.871,414.487z M291.975,413.85v-5.1h25.5
		v5.1H291.975z"/>
	<path id="XMLID_24_" fill="#FF9994" d="M321.173,407.73h-27.285c-0.893,0-1.594-0.701-1.594-1.594v-3.889
		c0-0.893,0.701-1.594,1.594-1.594h27.285c0.893,0,1.594,0.701,1.594,1.594v3.889C322.702,407.029,322.001,407.73,321.173,407.73z"
		/>
	<rect id="XMLID_23_" x="314.988" y="401.1" fill="#FFFFFF" width="2.104" height="6.375"/>
	<rect id="XMLID_22_" x="296.183" y="403.459" fill="#FF9994" width="7.969" height="1.466"/>
	<path id="XMLID_21_" fill="#FF9994" d="M304.215,381.656c-4.08,0-7.395-1.53-7.395,3.06c0,4.016,4.399,10.965,6.885,8.16
		c0.191-0.255,0.638-0.318,0.765-0.318c0.191,0,0.574,0.191,0.701,0.318c2.359,2.742,6.439-4.207,6.439-8.16
		C311.674,380.126,308.295,381.656,304.215,381.656z"/>
	<path id="XMLID_20_" fill="#FF9994" d="M302.94,378.022l1.594,3.188c0.063,0.127,0,0.255-0.128,0.255h-0.51
		c-0.064,0-0.128-0.063-0.128-0.127l-1.402-3.188c-0.063-0.127,0-0.255,0.128-0.255h0.318
		C302.876,377.895,302.94,377.959,302.94,378.022z"/>
	<path id="XMLID_19_" fill="#FF9994" d="M307.594,377.64c-0.191-0.191-0.638-0.127-1.147,0.191c0-0.701-0.191-1.211-0.51-1.275
		c-0.511-0.063-1.084,0.829-1.275,2.104c-0.063,0.446-0.127,0.829-0.063,1.211l0.573,1.211h0.064c0.063,0,0.127-0.064,0.19-0.064
		c0.383-0.191,0.829-0.574,1.275-1.02C307.594,379.042,307.977,378.022,307.594,377.64z"/>
	<rect id="XMLID_1_" x="291.337" y="394.725" fill="#FF9994" width="25.5" height="5.1"/>
	<rect id="XMLID_3_" x="291.975" y="408.75" fill="#FF9994" width="25.5" height="5.1"/>
</g>
<g id="XMLID_5_" opacity="0.25">
	<path id="XMLID_17_" fill="#ED4A43" d="M304.725,401.1h14.28c0.319,0,0.574-0.318,0.574-0.637c0-0.319-0.255-0.638-0.574-0.638
		h-0.255v-5.1h0.255c0.319,0,0.574-0.319,0.574-0.638s-0.255-0.637-0.574-0.637h-14.28V401.1z"/>
	<path id="XMLID_14_" fill="#ED4A43" d="M304.725,415.125h12.432c1.785,0,2.869-1.912,2.869-3.697v-0.638
		c0-1.785-1.084-3.315-2.869-3.315h-12.432V415.125z"/>
	<path id="XMLID_36_" fill="#ED4A43" d="M321.173,400.717c0.893,0,1.594,0.702,1.594,1.594v3.89c0,0.892-0.701,1.594-1.594,1.594
		h-16.448v-7.077H321.173z"/>
	<rect id="XMLID_12_" x="314.988" y="401.1" fill="#ED4A43" width="2.104" height="6.375"/>
	<line id="XMLID_35_" fill="none" x1="304.215" y1="403.459" x2="304.215" y2="404.988"/>
	<path id="XMLID_10_" fill="#ED4A43" d="M304.47,392.558c0.191,0,0.574,0.191,0.701,0.319c2.359,2.741,6.439-4.208,6.439-8.16
		c0-4.59-3.315-3.06-7.396-3.06L304.47,392.558z"/>
	<path id="XMLID_7_" fill="#ED4A43" d="M302.303,378.15c-0.064-0.127,0-0.255,0.127-0.255h0.319c0.063,0,0.127,0.064,0.127,0.064"/>
	<path id="XMLID_6_" fill="#ED4A43" d="M304.534,381.21c0.063,0.127,0,0.255-0.128,0.255"/>
	<path id="XMLID_8_" fill="#ED4A43" d="M307.594,377.64c-0.191-0.191-0.638-0.127-1.147,0.191c0-0.701-0.191-1.211-0.51-1.275
		c-0.511-0.063-1.084,0.829-1.275,2.104c-0.063,0.446-0.127,0.829-0.063,1.211l0.573,1.211h0.064c0.063,0,0.127-0.064,0.19-0.064
		c0.383-0.191,0.829-0.574,1.275-1.02C307.594,379.042,307.977,378.022,307.594,377.64z"/>
</g>
</svg>
