<?xml version="1.0" encoding="utf-8"?>
<!-- Generator: Adobe Illustrator 16.0.0, SVG Export Plug-In . SVG Version: 6.00 Build 0)  -->
<!DOCTYPE svg PUBLIC "-//W3C//DTD SVG 1.1//EN" "http://www.w3.org/Graphics/SVG/1.1/DTD/svg11.dtd">
<svg version="1.1" id="Layer_1" xmlns="http://www.w3.org/2000/svg" xmlns:xlink="http://www.w3.org/1999/xlink" x="0px" y="0px"
	 width="612px" height="456px" viewBox="0 166.5 612 456" enable-background="new 0 166.5 612 456" xml:space="preserve">
<g>
	<path fill="#009943" d="M0,293.057c43.158,24.763,156.361,29.716,176.878,77.119c24.763,58.017,6.368,79.949,68.629,111.787
		c28.301,14.857,33.253,21.226,65.799,24.056c20.518,2.122,72.166-13.442,88.439,6.367c38.205,45.281,41.743,77.119,113.202,60.847
		c-52.356-17.688-51.648-53.771-78.534-99.052c-38.913-65.092-88.439-79.949-155.653-67.922
		c-44.573,7.782-41.743-29.008-61.554-58.724C186.784,303.669,48.111,299.424,0,293.057z"/>
	<path fill="#009943" d="M146.456,575.354c11.32-42.45,33.96-56.601,71.459-79.948c22.64-14.15,45.281,7.074,70.044,14.149
		C233.48,528.659,185.369,532.196,146.456,575.354z"/>
	<path fill="#009943" d="M612,261.219c-3.537-67.214-94.807-57.309-128.768,21.933c-25.471,60.846-123.107,113.202-143.625,111.08
		c39.62,4.245,69.336,24.763,91.269,58.724c41.036-42.451,64.384-72.874,79.949-129.475c10.613-39.621,55.187-49.526,65.092-49.526
		C595.728,274.661,612,269.001,612,261.219"/>
	<path fill="#009943" d="M501.628,377.251c0.707-7.783,7.075-15.565,9.197-22.641c5.66,4.953,9.905,14.15,13.443,21.226
		C517.193,375.836,508.703,377.958,501.628,377.251z"/>
	<path fill="#009943" d="M14.858,288.104c9.198,2.83,20.518,2.123,29.715,2.83c-6.368-12.735-12.735-25.47-19.103-38.206
		C21.933,264.756,16.98,276.076,14.858,288.104z"/>
	<path fill="#009943" d="M65.799,288.812c9.198,3.538,21.226,4.245,31.131,6.368c-8.49-12.735-16.98-25.471-24.763-38.206
		C70.044,266.879,65.799,278.199,65.799,288.812z"/>
	<path fill="#C92918" d="M201.642,213.815c51.648,7.075,140.088-11.32,161.313,26.886c3.537,5.66,48.11,86.317,55.894,96.929
		c-56.602-2.83-90.562,27.593-137.965-5.66c29.008-3.537-26.178-44.573-41.036-61.554
		C274.516,271.124,222.16,238.578,201.642,213.815z"/>
	<path fill="#009943" d="M483.939,406.259c0.708-7.782,10.613-16.272,12.735-23.348c5.66,4.953,17.688,16.272,20.519,22.64
		C510.825,406.259,491.723,406.967,483.939,406.259z"/>
</g>
</svg>
