<?xml version="1.0" encoding="utf-8"?>
<!-- Generator: Adobe Illustrator 16.0.0, SVG Export Plug-In . SVG Version: 6.00 Build 0)  -->
<!DOCTYPE svg PUBLIC "-//W3C//DTD SVG 1.1//EN" "http://www.w3.org/Graphics/SVG/1.1/DTD/svg11.dtd">
<svg version="1.1" id="Layer_1" xmlns="http://www.w3.org/2000/svg" xmlns:xlink="http://www.w3.org/1999/xlink" x="0px" y="0px"
	 width="482.389px" height="269.312px" viewBox="-0.006 197.241 482.389 269.312"
	 enable-background="new -0.006 197.241 482.389 269.312" xml:space="preserve">
<g id="Layer_1_1_">
</g>
<g id="Layer_2">
	<g id="XMLID_9_">
		<path id="XMLID_16_" fill="#FFB878" d="M387.842,222.237c0,13.708-11.288,24.996-24.996,24.996
			c-13.707,0-24.996-11.289-24.996-24.996s11.289-24.996,24.996-24.996C376.554,197.241,387.842,208.53,387.842,222.237z"/>
		<circle id="XMLID_14_" fill="#FFB878" cx="115.304" cy="222.237" r="24.996"/>
		<path id="XMLID_18_" fill="#FFB878" d="M257.217,312.545c0,8.063-6.451,14.514-14.514,14.514c-0.806,0-1.613,0-2.419,0
			c-7.257-0.806-12.901-7.257-12.901-14.514s5.645-13.708,12.901-14.514c0.806,0,1.613,0,2.419,0
			C250.767,298.032,257.217,304.482,257.217,312.545z"/>
		<path id="XMLID_38_" fill="#FFB878" d="M482.182,219.012v1.613c0,4.032-2.419,8.063-6.45,10.482l-79.02,32.253l20.964,189.486
			v0.807c0,6.45-4.031,11.288-9.676,12.095c0,0,0,0-0.807,0c-0.806,0-1.612,0-2.419,0c-1.612,0-3.225-0.807-4.838-1.612
			c-2.419-1.613-4.838-4.838-4.838-8.87l-9.676-96.759v96.759c0,4.032-1.612,7.257-4.838,8.87c-0.807,0.806-2.419,1.612-3.226,1.612
			c-1.612,0.807-2.419,0.807-4.031,0.807s-2.419,0-4.031-0.807c-1.613,0-2.419-0.807-3.226-1.612
			c-3.226-2.419-4.838-5.645-4.838-8.87V277.874l-64.506,25.802c-6.451,2.419-13.708-0.806-16.127-6.451
			c-2.419-6.451,0.807-12.901,6.451-15.32l83.051-29.028l96.759-43.542c6.451-2.419,12.096,0.806,14.514,6.451v0.806
			C482.988,216.593,482.182,218.206,482.182,219.012z"/>
		<path id="XMLID_11_" fill="#FFB878" d="M195.937,281.099l-89.502-32.253L16.126,208.53c-5.644-2.419-12.901,0.806-15.32,6.451
			c-2.419,5.644,0.807,12.901,6.451,15.32l79.02,32.253L63.7,452.039c-0.807,6.451,4.032,12.096,10.482,12.901
			c6.451,0.807,10.482-4.031,11.289-10.481l9.676-96.759v95.953c0,6.45,8.869,8.869,15.32,8.869l0,0
			c6.451,0,16.933-2.419,16.933-8.869V277.067l62.087,25.802c6.45,2.419,12.095-0.806,14.514-6.451S202.387,283.518,195.937,281.099
			z"/>
		<path id="XMLID_17_" fill="#FFB878" d="M252.379,344.798L252.379,344.798l6.451,91.921c0,4.031-2.419,6.45-6.451,7.257
			c-4.032,0-7.257-2.419-7.257-6.451l-2.419-46.767l-2.419,25.802l-1.613,21.771c0,4.031-3.225,6.45-7.257,6.45
			s-6.451-3.225-6.451-7.257l7.257-91.114c0,0-0.806,0-0.806-0.807l-31.447-31.446c-3.225-3.226-3.225-8.063,0-10.482
			c3.226-3.225,8.063-3.225,10.482,0c0,0,17.739,27.415,29.028,30.641c0.806,0,0.806,0,1.612,0
			c11.289,0,31.447-31.447,31.447-31.447c3.225-3.225,8.063-3.225,10.482,0c3.226,3.225,3.226,8.063,0,10.482L252.379,344.798z"/>
	</g>
	<g id="XMLID_7_" opacity="0.25">
		<path id="XMLID_33_" fill="#E67E22" d="M242.704,327.059c-0.806,0-1.613,0-2.419,0v-29.027c0.806,0,1.613,0,2.419,0
			c8.063,0,14.514,6.451,14.514,14.514C257.217,320.609,250.767,327.059,242.704,327.059z"/>
		<path id="XMLID_35_" fill="#E67E22" d="M283.826,302.87c3.225,3.225,3.225,8.063,0,10.482l-31.447,31.447l0,0l6.451,91.921
			c0,4.031-2.419,6.45-6.451,7.257c-4.032,0-7.257-2.419-7.257-6.451l-2.419-46.767l-2.419,25.802v-82.244c0.806,0,0.806,0,1.613,0
			c11.288,0,31.446-31.447,31.446-31.447C276.569,299.644,281.407,299.644,283.826,302.87z"/>
		<path id="XMLID_36_" fill="#E67E22" d="M337.85,222.237c0-13.708,11.289-24.996,24.996-24.996
			c13.708,0,24.996,11.289,24.996,24.996s-11.288,24.996-24.996,24.996C349.139,247.233,337.85,235.945,337.85,222.237z"/>
		<path id="XMLID_37_" fill="#E67E22" d="M482.182,215.787v4.838c0,4.032-2.419,8.063-6.45,10.482l-79.02,32.253l20.964,188.679
			v0.807v0.807c0,5.645-4.031,10.482-9.676,10.482h-8.063c-2.419-1.613-4.838-4.838-4.838-8.87l-9.676-96.759v96.759
			c0,4.032-1.612,7.257-4.838,8.87h-15.32c-3.226-2.419-4.838-5.645-4.838-8.87V277.874l-64.506,25.802
			c-6.451,2.419-13.708-0.806-16.126-6.451c-2.419-6.451,0.806-12.901,6.451-15.32l83.052-29.028l96.759-43.542
			C473.312,206.111,479.763,209.336,482.182,215.787L482.182,215.787z"/>
	</g>
</g>
</svg>
