<?xml version="1.0" encoding="utf-8"?>
<!-- Generator: Adobe Illustrator 16.0.0, SVG Export Plug-In . SVG Version: 6.00 Build 0)  -->
<!DOCTYPE svg PUBLIC "-//W3C//DTD SVG 1.1//EN" "http://www.w3.org/Graphics/SVG/1.1/DTD/svg11.dtd">
<svg version="1.1" id="Layer_1" xmlns="http://www.w3.org/2000/svg" xmlns:xlink="http://www.w3.org/1999/xlink" x="0px" y="0px"
	 width="413.819px" height="398.118px" viewBox="449.817 350.923 413.819 398.118"
	 enable-background="new 449.817 350.923 413.819 398.118" xml:space="preserve">
<g id="XMLID_5_">
	<path id="XMLID_7_" fill="#FFB878" d="M597.221,538.387l18.587-33.044c2.065-4.131,8.949-3.442,10.326,0.688l28.913,90.182
		c2.065,5.508,10.326,4.819,11.016-0.688l19.275-125.979c0.688-5.507,7.572-6.884,10.326-2.064l44.746,71.595
		c1.377,1.377,2.754,2.753,4.819,2.753h97.066c2.065,0,4.131-0.688,4.819-2.753c27.536-45.436,20.652-110.146-20.652-151.451
		c-45.436-45.436-117.03-48.189-167.285-11.015c-2.064,1.377-4.818,1.377-6.884,0c-49.565-37.174-122.538-33.044-167.284,11.703
		v-1.377c-38.552,41.305-46.124,106.016-19.275,151.451c0.688,1.377,2.753,2.753,4.818,2.753h120.473
		C594.467,541.14,596.532,540.451,597.221,538.387z"/>
	<path id="XMLID_6_" fill="#FFB878" d="M735.592,563.169l-34.421-55.761c-2.753-4.131-9.638-2.754-10.326,2.064l-21.341,139.06
		c-0.688,6.196-8.949,6.885-11.015,0.688l-34.421-106.016c-1.377-4.818-8.261-5.507-10.326-0.688l-11.015,19.964
		c-0.688,2.065-2.753,2.754-4.819,2.754H474.683c1.377,0,2.065,3.442,3.442,4.819c2.754,3.441,6.195,6.884,9.638,10.326
		L653.67,746.287c2.065,2.065,5.508,2.065,8.262,0L827.839,580.38c3.442-3.442,6.196-6.885,9.638-10.326
		c1.377-1.377,2.754-4.819,3.442-4.819h-99.132C738.346,565.923,736.969,565.234,735.592,563.169z"/>
</g>
<g id="XMLID_2_" opacity="0.25">
	<path id="XMLID_9_" fill="#E67E22" d="M659.866,600.344c2.754,0,5.507-1.377,6.195-4.819l19.276-125.979
		c0.688-5.507,7.572-6.884,10.326-2.065l44.746,71.596c1.377,1.377,2.754,2.753,4.819,2.753h97.066c2.065,0,4.131-0.688,4.819-2.753
		c27.536-45.436,20.652-110.146-20.652-151.451c-45.436-45.436-117.031-48.189-167.285-11.015L659.866,600.344z"/>
	<path id="XMLID_8_" fill="#E67E22" d="M659.178,749.041L827.15,581.068c3.442-3.442,6.196-6.885,9.638-10.326
		c1.377-1.377,2.754-4.819,3.442-4.819h-99.132c-2.065,0-3.441-0.688-4.818-2.754l-34.421-55.761
		c-2.754-4.131-9.638-2.754-10.326,2.064l-21.341,139.06c-0.688,6.196-8.949,6.885-11.015,0.688V749.041z"/>
</g>
</svg>
