<?xml version="1.0" encoding="utf-8"?>
<!-- Generator: Adobe Illustrator 16.0.0, SVG Export Plug-In . SVG Version: 6.00 Build 0)  -->
<!DOCTYPE svg PUBLIC "-//W3C//DTD SVG 1.1//EN" "http://www.w3.org/Graphics/SVG/1.1/DTD/svg11.dtd">
<svg version="1.1" id="Layer_1" xmlns="http://www.w3.org/2000/svg" xmlns:xlink="http://www.w3.org/1999/xlink" x="0px" y="0px"
	 width="445.302px" height="634.024px" viewBox="3.831 0 445.302 634.024" enable-background="new 3.831 0 445.302 634.024"
	 xml:space="preserve">
<g id="Layer_1_1_">
</g>
<g id="Layer_2">
	<g id="XMLID_8_">
		<path id="XMLID_10_" fill="#FF9994" d="M385.518,434.699v190.843c0,4.241-4.24,8.482-10.602,8.482s-10.603-4.241-10.603-8.482
			V434.699H385.518z"/>
		<path id="XMLID_13_" fill="#FF9994" d="M78.048,434.699v190.843c0,4.241-4.241,8.482-10.603,8.482s-10.603-4.241-10.603-8.482
			V434.699H78.048z"/>
		<path id="XMLID_29_" fill="#FF9994" d="M385.518,41.35v245.976c0,23.325-19.084,41.35-41.349,41.35H98.193
			c-22.265,0-41.35-18.024-41.35-41.35V41.35C56.843,19.084,75.928,0,98.193,0h245.976C367.494,0,385.518,19.084,385.518,41.35z"/>
		<path id="XMLID_27_" fill="#FF9994" d="M449.133,364.723v12.723c0,13.783-11.663,25.446-25.446,25.446H29.277
			c-13.783,0-25.446-11.663-25.446-25.446v-12.723c0-13.783,11.663-25.445,25.446-25.445h394.41
			C437.47,339.277,449.133,350.94,449.133,364.723z"/>
	</g>
	<g id="XMLID_6_" opacity="0.25">
		<path id="XMLID_30_" fill="#ED4A43" d="M344.169,328.675H226.482V0h117.687c23.325,0,41.349,19.084,41.349,41.35v245.976
			C385.518,310.65,367.494,328.675,344.169,328.675z"/>
		<path id="XMLID_11_" fill="#ED4A43" d="M364.313,434.699h21.204v190.843c0,4.241-4.24,8.482-10.602,8.482
			s-10.603-4.241-10.603-8.482V434.699z"/>
		<path id="XMLID_12_" fill="#ED4A43" d="M449.133,364.723v12.723c0,13.783-11.663,25.446-25.446,25.446H226.482v-63.614h197.205
			C437.47,339.277,449.133,350.94,449.133,364.723z"/>
	</g>
</g>
</svg>
