<?xml version="1.0" encoding="utf-8"?>
<!-- Generator: Adobe Illustrator 16.0.0, SVG Export Plug-In . SVG Version: 6.00 Build 0)  -->
<!DOCTYPE svg PUBLIC "-//W3C//DTD SVG 1.1//EN" "http://www.w3.org/Graphics/SVG/1.1/DTD/svg11.dtd">
<svg version="1.1" id="Layer_1" xmlns="http://www.w3.org/2000/svg" xmlns:xlink="http://www.w3.org/1999/xlink" x="0px" y="0px"
	 width="451.105px" height="382.744px" viewBox="0 124.961 451.105 382.744" enable-background="new 0 124.961 451.105 382.744"
	 xml:space="preserve">
<g id="XMLID_9_">
	<path id="XMLID_33_" fill="#FF9994" d="M451.105,146.764c0,6.767-3.007,12.029-6.767,16.541c-2.255,2.255-3.759,3.759-6.767,4.511
		l0,0c-0.752,0-1.504,0.751-2.255,0.751c-1.504,0.752-3.008,0.752-4.512,1.504c-0.752,0-1.504,0-2.255,0H23.307
		C10.526,170.071,0,158.793,0,146.012c0-6.015,2.255-11.278,6.767-15.037c4.511-3.759,9.774-6.015,16.541-6.015h404.492
		C440.58,124.961,451.105,133.983,451.105,146.764z"/>
	<path id="XMLID_15_" fill="#FF9994" d="M42.855,507.648L42.855,507.648c-9.022-0.752-16.541-8.271-16.541-17.292l15.037-328.556
		c0-9.774,8.27-17.292,17.292-16.541l0,0c9.022,0.752,16.541,8.271,16.541,17.292L60.147,491.86
		C60.147,500.882,51.877,508.4,42.855,507.648z"/>
	<path id="XMLID_18_" fill="#FF9994" d="M425.543,489.604c0.752,9.022-6.767,17.292-15.789,18.044
		c-9.021,0.752-17.292-6.767-18.044-15.788l-15.789-323.293v-4.511c-0.751-9.022,6.767-16.541,15.789-16.541h0.752
		c9.022,0,16.54,6.015,16.54,15.037l0.752,6.015L425.543,489.604z"/>
	<g id="XMLID_11_">
		<path id="XMLID_13_" fill="#FF9994" d="M294.722,157.29l-0.751,11.277v1.504l-9.022,245.101v3.008v6.015
			c0,4.511-3.759,7.519-7.518,7.519h-3.007c-3.759,0-6.767-3.76-6.767-8.271v-5.263v-3.008l9.022-245.101v-1.504l0.752-12.029
			c0-4.511,3.759-8.271,7.518-7.519h3.007C291.715,149.02,294.722,152.779,294.722,157.29z"/>
		<path id="XMLID_12_" fill="#FF9994" d="M178.187,431.713h-3.007c-3.759,0-6.767-3.008-7.518-7.519L156.383,157.29
			c0-4.511,3.007-8.271,6.767-8.271h3.007c3.759,0,6.767,3.007,7.519,7.519l11.277,266.152
			C184.953,427.201,181.946,430.961,178.187,431.713z"/>
	</g>
	<path id="XMLID_14_" fill="#FF9994" d="M319.533,436.976c0,6.015-2.256,9.773-6.015,13.533c-3.76,3.759-9.022,5.263-14.285,5.263
		H152.624c-11.277,0-20.3-9.022-20.3-20.3c0-6.015,2.256-9.022,6.015-12.781c3.759-3.759,9.022-4.511,14.285-4.511h145.857
		C309.759,418.18,319.533,425.698,319.533,436.976z"/>
</g>
<path id="XMLID_36_" opacity="0.25" fill="#ED4A43" enable-background="new    " d="M451.105,146.764
	c0,6.767-3.007,12.029-6.767,16.541c-2.255,2.255-3.759,3.759-6.767,4.511l0,0c-0.752,0-1.504,0.751-2.255,0.751
	c-1.504,0.752-3.008,0.752-4.512,1.504c-0.752,0-1.504,0-2.255,0h-18.797l15.037,320.285l0,0c0,0.752,0.752,0.752,0.752,1.504
	c0,3.007-1.504,6.015-3.008,8.27c0,0.752-0.751,0.752-1.503,1.504c-3.008,3.008-6.767,5.263-12.03,6.015
	c-9.021,0.752-17.292-6.015-17.292-15.788l-16.54-321.789h-81.199l-9.022,248.108h13.533c11.277,0,20.3,7.519,20.3,18.796
	c0,6.015-2.256,9.773-6.015,13.533c-3.759,3.759-9.022,5.263-14.285,5.263H228.56V418.18h39.096v-3.008l9.022-245.101H228.56v-45.11
	h199.239C440.58,124.961,451.105,133.983,451.105,146.764z"/>
</svg>
