<?xml version="1.0" encoding="utf-8"?>
<!-- Generator: Adobe Illustrator 16.0.0, SVG Export Plug-In . SVG Version: 6.00 Build 0)  -->
<!DOCTYPE svg PUBLIC "-//W3C//DTD SVG 1.1//EN" "http://www.w3.org/Graphics/SVG/1.1/DTD/svg11.dtd">
<svg version="1.1" id="Layer_1" xmlns="http://www.w3.org/2000/svg" xmlns:xlink="http://www.w3.org/1999/xlink" x="0px" y="0px"
	 width="381.408px" height="476.265px" viewBox="0 42.771 381.408 476.265" enable-background="new 0 42.771 381.408 476.265"
	 xml:space="preserve">
<g id="XMLID_8_">
	<path id="XMLID_14_" fill="#FFE26C" d="M379.424,455.533h-22.226v-18.257c0-4.763-8.731-5.557-13.494-5.557h-34.132v-17.463
		c0-3.969-3.969-6.351-7.938-6.351H80.965c-3.969,0-9.525,2.382-9.525,6.351v17.463H38.895c-4.763,0-7.144,1.588-7.144,5.557v18.257
		H3.175c-2.381,0-3.175,3.969-3.175,7.144v50.008c0,3.176,0,6.351,3.175,6.351h376.249c3.176,0,1.588-3.176,1.588-6.351v-50.008
		C381.012,459.502,382.6,455.533,379.424,455.533z"/>
	<path id="XMLID_13_" fill="#FFE26C" d="M88.109,397.588L88.109,397.588c-7.938,0-15.082-7.145-15.082-15.082V232.482
		c0-7.938,7.144-15.082,15.082-15.082l0,0c7.938,0,15.082,7.144,15.082,15.082v150.023C103.19,390.443,96.84,397.588,88.109,397.588
		z"/>
	<path id="XMLID_12_" fill="#FFE26C" d="M157.167,397.588L157.167,397.588c-7.938,0-15.082-7.145-15.082-15.082V232.482
		c0-7.938,7.144-15.082,15.082-15.082l0,0c7.938,0,15.082,7.144,15.082,15.082v150.023
		C172.249,390.443,165.105,397.588,157.167,397.588z"/>
	<path id="XMLID_11_" fill="#FFE26C" d="M226.226,397.588L226.226,397.588c-7.938,0-15.082-7.145-15.082-15.082V232.482
		c0-7.938,7.144-15.082,15.082-15.082l0,0c7.938,0,15.082,7.144,15.082,15.082v150.023
		C240.514,390.443,234.164,397.588,226.226,397.588z"/>
	<path id="XMLID_10_" fill="#FFE26C" d="M294.49,397.588L294.49,397.588c-7.938,0-15.082-7.145-15.082-15.082V232.482
		c0-7.938,7.144-15.082,15.082-15.082l0,0c7.938,0,15.082,7.144,15.082,15.082v150.023
		C309.572,390.443,303.222,397.588,294.49,397.588z"/>
	<path id="XMLID_9_" fill="#FFE26C" d="M309.572,188.825l-111.129-77.79V66.583h37.308l2.381-23.813h-44.451h-3.175l0,0v68.265
		l-115.097,77.79c-0.794,0.794-3.969,2.381-3.969,3.175v12.7c0,2.381,3.969,4.763,6.351,4.763h228.606
		c2.382,0,3.97-2.381,3.97-4.763V192C309.572,191.206,310.366,189.619,309.572,188.825z"/>
</g>
<g id="XMLID_4_" opacity="0.25">
	<path id="XMLID_3_" fill="#F1C40F" d="M190.506,519.035h188.918c3.176,0,1.588-3.176,1.588-6.351v-50.008
		c0-3.175,0.794-7.144-1.588-7.144h-22.226v-18.257c0-4.763-8.731-5.557-13.494-5.557h-34.132v-17.463
		c0-3.969-3.969-6.351-7.938-6.351H190.506V519.035z"/>
	<path id="XMLID_7_" fill="#F1C40F" d="M226.226,397.588L226.226,397.588c-7.938,0-15.082-7.145-15.082-15.082V232.482
		c0-7.938,7.144-15.082,15.082-15.082l0,0c7.938,0,15.082,7.144,15.082,15.082v150.023
		C240.514,390.443,234.164,397.588,226.226,397.588z"/>
	<path id="XMLID_6_" fill="#F1C40F" d="M294.49,397.588L294.49,397.588c-7.938,0-15.082-7.145-15.082-15.082V232.482
		c0-7.938,7.144-15.082,15.082-15.082l0,0c7.938,0,15.082,7.144,15.082,15.082v150.023
		C309.572,390.443,303.222,397.588,294.49,397.588z"/>
	<path id="XMLID_15_" fill="#F1C40F" d="M190.506,209.463h115.098c2.381,0,3.969-2.381,3.969-4.763V192c0-0.794,0.794-2.381,0-3.175
		l-111.129-77.79V66.583h37.308l2.381-23.813h-44.451h-3.175l0,0v71.439V209.463z"/>
</g>
</svg>
