<?xml version="1.0" encoding="utf-8"?>
<!-- Generator: Adobe Illustrator 16.0.0, SVG Export Plug-In . SVG Version: 6.00 Build 0)  -->
<!DOCTYPE svg PUBLIC "-//W3C//DTD SVG 1.1//EN" "http://www.w3.org/Graphics/SVG/1.1/DTD/svg11.dtd">
<svg version="1.1" id="Layer_1" xmlns="http://www.w3.org/2000/svg" xmlns:xlink="http://www.w3.org/1999/xlink" x="0px" y="0px"
	 width="422.861px" height="333.966px" viewBox="0.527 135.368 422.861 333.966"
	 enable-background="new 0.527 135.368 422.861 333.966" xml:space="preserve">
<g id="Layer_1_1_">
</g>
<g id="Layer_2">
	<g id="XMLID_12_">
		<path id="XMLID_28_" fill="#FFE26C" d="M164.607,214.51l27.435,27.435l16.883-16.883l-28.49-26.379l25.324-25.324l90.745,90.745
			L96.021,464.586c-6.331,6.331-16.883,6.331-24.269,0L5.276,398.11c-6.331-6.331-6.331-16.883,0-24.269L164.607,214.51z"/>
		<g id="XMLID_14_">
			<path id="XMLID_15_" fill="#FFE26C" d="M291.228,264.104l-87.579-87.579c6.331-6.331,3.166-3.166,3.166-3.166
				c48.538-48.538,128.731-49.593,178.324-1.055c49.594,48.538,49.594,127.676,0,177.269c-49.593,49.594-128.731,48.538-177.269,0
				l-1.055-1.055L291.228,264.104z"/>
		</g>
		<path id="XMLID_13_" fill="#FFE26C" d="M391.469,165.973c-5.275-5.276-10.552-9.497-16.883-13.717
			c1.056-1.055,2.11-2.11,3.166-3.166c8.441-8.441,23.214-8.441,31.655,0s8.441,23.214,0,31.655c-1.056,1.055-2.11,2.11-3.166,3.165
			C400.966,176.524,396.745,170.193,391.469,165.973z"/>
	</g>
	<g id="XMLID_4_">
		<path id="XMLID_11_" opacity="0.25" fill="#F3C244" enable-background="new    " d="M211.035,172.304
			c-3.166-1.056-4.221,1.055-3.166,0c48.538-48.538,128.73-49.593,178.324-1.056c49.593,48.538,49.593,127.676,0,177.269
			c-49.594,49.593-128.731,48.538-177.269,0c0,0,9.497-1.055,6.331-4.221L211.035,172.304z"/>
	</g>
</g>
</svg>
