<?xml version="1.0" encoding="utf-8"?>
<!-- Generator: Adobe Illustrator 16.0.0, SVG Export Plug-In . SVG Version: 6.00 Build 0)  -->
<!DOCTYPE svg PUBLIC "-//W3C//DTD SVG 1.1//EN" "http://www.w3.org/Graphics/SVG/1.1/DTD/svg11.dtd">
<svg version="1.1" id="Layer_1" xmlns="http://www.w3.org/2000/svg" xmlns:xlink="http://www.w3.org/1999/xlink" x="0px" y="0px"
	 width="427.477px" height="609.23px" viewBox="1.385 0 427.477 609.23" enable-background="new 1.385 0 427.477 609.23"
	 xml:space="preserve">
<g id="XMLID_9_">
	<g id="XMLID_12_">
		<path id="XMLID_14_" fill="#FF9994" d="M222.738,362.492c1.016,17.262,0,69.046,0,69.046c15.231-13.2,20.308-22.338,27.416-32.492
			c7.108-11.169,18.277-31.477,20.308-42.646c7.108-38.584,4.062-142.154,2.031-182.769h130.984
			c12.185,0,25.385-18.277,25.385-31.477v-9.138c0-12.185-11.169-21.323-23.354-21.323c0,0-142.154,7.107-188.862,7.107
			c-47.723,0-188.861-7.107-188.861-7.107c-13.2,0-26.4,9.138-26.4,21.323v9.138c0,12.185,15.23,30.461,27.415,30.461h130.985
			c-5.077,91.385-1.016,251.815,2.031,338.123c0,12.185,10.154,17.262,22.338,17.262h9.139c12.185,0,21.323-8.123,21.323-21.323
			V351.323c0,0,6.092-1.016,6.092,2.031C220.708,353.354,222.738,359.446,222.738,362.492z"/>
		<path id="XMLID_13_" fill="#FF9994" d="M92.769,480.277c-10.154,10.153-10.154,27.415,0,38.584l0,0
			c10.154,10.154,27.416,10.154,38.585,0c0,0,9.138-8.123,22.338-20.308c-1.016-22.339-2.031-48.738-2.031-76.153L92.769,480.277z"
			/>
	</g>
	<polygon id="XMLID_11_" fill="#FF9994" points="163.846,538.154 163.846,568.615 143.539,568.615 143.539,609.23 234.923,609.23 
		234.923,568.615 214.615,568.615 214.615,538.154 	"/>
	<circle id="XMLID_10_" fill="#FF9994" cx="213.6" cy="55.846" r="55.846"/>
</g>
<g id="XMLID_1_" opacity="0.25">
	<path id="XMLID_24_" fill="#ED4A43" d="M214.615,111.692V0c30.462,0,55.846,25.385,55.846,55.846
		C270.461,87.323,245.077,111.692,214.615,111.692z"/>
	<rect id="XMLID_20_" x="214.615" y="568.615" fill="#ED4A43" width="20.308" height="40.615"/>
	<path id="XMLID_3_" fill="#ED4A43" d="M406.523,111.692c9.138,0,21.322,6.092,21.322,13.2v17.261c0,3.046,0,5.077-1.015,8.123
		c-4.062,11.169-13.2,23.354-23.354,23.354h-132c2.031,40.615,5.077,144.185-2.031,182.769
		c-2.031,11.169-12.185,31.477-20.308,42.646c-7.108,10.154-11.169,19.292-27.416,32.492c0,0,1.015-51.784,0-69.046
		c0-2.031-2.031-9.138-2.031-9.138c0-3.046-6.092-2.031-6.092-2.031V121.846l1.015-4.062c35.539,0,119.815-3.046,162.462-6.092
		c1.015,0,4.062,0,5.077,0c1.015,0,3.046,0,4.062,0c1.015,0,3.046,0,4.062,0c7.107,0,8.123,0,11.169,0
		C402.462,111.692,405.508,111.692,406.523,111.692z"/>
</g>
</svg>
